# xmcd CD database file
#
# Track frame offsets:
#	182
#	11912
#	22790
#	35142
#	46160
#	59345
#	72430
#	83715
#	97237
#	108312
#	119575
#	130650
#	148185
#	156352
#	166592
#	185107
#	197217
#	211590
#	225305
#	238250
#	251570
#
# Disc length: 3534 seconds
#
# Revision: 4
# Processed by: cddbd v1.5.1PL2 Copyright (c) Steve Scherf et al.
# Submitted via: CDex 1.51
#
DISCID=290dcc15
DTITLE=Hank Williams - Hey, Good Lookin' December 1950 - July 1951 Volume VI
DYEAR=1987
DGENRE=Country
TTITLE0=Dear John
TTITLE1=I Can't Help It (If I'm Still In Love With You)
TTITLE2=Howlin' at the Moon
TTITLE3=My Heart Would Know
TTITLE4=Hey, Good Lookin'
TTITLE5=The Pale Horse and His Rider
TTITLE6=A Home in Heaven
TTITLE7=I'd Still Want You
TTITLE8=(I Heard That) Lonesome Whistle
TTITLE9=Crazy Heart
TTITLE10=I Want to Live and Love
TTITLE11=A Tramp on the Street
TTITLE12=The Angel of Death
TTITLE13=I Can't Escape From You
TTITLE14=Message to My Mother
TTITLE15=Just Waitin'
TTITLE16=Men with Broken Hearts
TTITLE17=Ramblin' Man
TTITLE18=A Picture From Life's Other Side
TTITLE19=I've Been Down That Road Before
TTITLE20=I Dreamed About Mom Last Night
EXTD=YEAR: 1987
EXTT0=
EXTT1=
EXTT2=
EXTT3=
EXTT4=
EXTT5=
EXTT6=
EXTT7=
EXTT8=
EXTT9=
EXTT10=
EXTT11=
EXTT12=
EXTT13=
EXTT14=
EXTT15=
EXTT16=
EXTT17=
EXTT18=
EXTT19=
EXTT20=
PLAYORDER=
